<?xml version="1.0" encoding="UTF-8"?>
<svg  version="1.1" viewBox="0 0 1200 1200" xmlns="http://www.w3.org/2000/svg">
 <path fill="#ffffff" d="m491.96 1167c-1.3047-2.1094 9.8984-17.449 24.895-34.086 14.996-16.637 31.551-38.785 36.785-49.219s12.75-24.305 16.699-30.828c9.2422-15.262 5.3594-18.961-8.8711-8.4414-21.902 16.195-28.91 2.1484-15.027-30.125 8.2031-19.062 7.4219-30.969-1.793-27.434-2.9531 1.1289-12.379 12.055-20.945 24.266-8.5664 12.215-19.543 24.805-24.395 27.984-15.336 10.047-17.832 4.0156-15.055-36.348 2.3516-34.141 2.0469-36.707-4.3594-36.707-7.8047 0-23.707 15.891-41.887 41.859-13.023 18.602-25.598 28.883-35.336 28.883-4.8906 0-5.4297-3.1875-3.3008-19.547 1.3984-10.75 5.4258-31.73 8.9453-46.625 3.6406-15.406 4.9492-27.973 3.0312-29.16-4.6016-2.8438-30.824 11.121-53.355 28.422-44.594 34.23-75.91 98.191-82.496 168.48-1.3008 13.887-3.9844 26.25-5.9609 27.469-7.6523 4.7305-10.492-9.5664-9.4023-47.402 1.0586-36.801 2.0273-41.16 14.891-67.016 7.5664-15.211 22.211-38.035 32.543-50.719 10.328-12.684 18.781-25.445 18.781-28.355 0-6.793-43.734-26.391-71.918-32.223-12.379-2.5625-29.5-3.4062-39.969-1.9648-17.141 2.3594-19.07 1.7617-30.148-9.3164-6.5078-6.5117-15.934-13.395-20.945-15.297-7.9609-3.0273-8.7773-4.9844-6.4883-15.5 1.4414-6.6211 2.7109-17.902 2.8242-25.066 0.20312-13.129-26.168-81.102-48.688-125.5-25.699-50.664-38.449-105.37-45.086-193.43-8.3164-110.32 7.4609-175.43 62.258-256.92 49.27-73.273 93.367-121.71 135.77-149.14 68.773-44.488 224.47-94.215 313.7-100.19 16.383-1.0977 36.488-4.5586 44.68-7.6953 20.336-7.7812 75.355-7.6484 106.11 0.26172 42.562 10.945 92.336 32.195 115.72 49.41 12.492 9.1953 34.289 24.141 48.438 33.207 14.148 9.0703 25.727 18.969 25.727 22.004 0 3.0312 5.1211 8.1641 11.383 11.402 12.043 6.2266 32.977 35.906 47.762 67.715 6.0586 13.031 11.684 19.816 17.684 21.324 6.8359 1.7148 8.8008 4.7344 8.8008 13.52 0 6.2188 6.0898 25.875 13.535 43.676 10.289 24.605 14.699 42.188 18.387 73.32 3.1562 26.629 8.043 48.117 13.973 61.434 6.9922 15.703 11.496 39.352 19.32 101.43 8.7695 69.566 9.9297 89.727 8.2617 143.34-2.0977 67.383-8.4727 100.6-28.734 149.73-5.7227 13.883-9.1562 27.262-7.6289 29.734 1.5273 2.4727 15.988 13.16 32.133 23.754 37.43 24.559 46.027 38.516 46.113 74.863 0.046875 18.797-2.0859 30.254-7.8359 42.129-13.785 28.477-55.203 48.816-106.08 52.094-48.555 3.1289-88.285-9.4609-130.4-41.324-33.52-25.359-43.461-23.59-108.84 19.398-19.582 12.875-44.082 25.559-55.848 28.91-11.527 3.2812-22.266 7.1719-23.859 8.6445-1.5938 1.4688 0.67188 7.2109 5.0312 12.758 8.6172 10.957 18.672 47.473 19.617 71.238 0.51953 13.16-0.46875 15.043-8.5078 16.176-12.078 1.707-18.824-8.1133-18.824-27.395 0-21.09-9.7539-47.91-22.312-61.355-10.215-10.934-11.305-11.199-45.895-11.199h-35.434l-7.2734 12.098c-4 6.6562-8.2695 16.363-9.4922 21.574-2.2617 9.6641-57.961 66.848-65.105 66.848-2.1602 0-5-1.7266-6.3047-3.8359zm129.7-139.09c6.5195-4.8906 20.977-13.461 32.129-19.051 11.152-5.5859 30.176-19.594 42.277-31.133 46.332-44.172 48.488-80.246 5.0898-85.141-16.012-1.8047-16.723-1.4258-27.953 14.898-7.8086 11.348-23.551 24.68-48.824 41.344-38.59 25.445-59.746 48.227-59.746 64.332 0 6.582 2.0742 8.7539 8.3789 8.7734 4.6055 0 13.402 3.3516 19.547 7.4219 14.082 9.3281 14.793 9.293 29.102-1.4453zm389.05-37.312c18.262-19.812 33.129-48.07 36.551-69.473 3.0391-19-3.5781-25.805-25.102-25.805-16.535 0-31.508 11.289-48.699 36.727-6.4141 9.4922-19.766 25.953-29.668 36.582s-18.008 20.855-18.008 22.73c0 4.6992 35.75 14.695 54.441 15.223 13.617 0.38281 17.055-1.418 30.484-15.984zm-492.92 0.40625c2.9062-4.6094 2.2422-11.051-2.5273-24.48-3.5586-10.023-6.4727-20.887-6.4727-24.145s-4.9766-8.4922-11.059-11.641c-6.082-3.1445-20.648-12.438-32.367-20.648-34.113-23.895-82.785-35.066-186.44-42.789-40.078-2.9844-41.191-2.0781-35.891 29.164 3.793 22.359 6.4648 24.176 67.473 45.984l35.801 12.797 15.156-11.523c17.492-13.297 42.191-25.875 51.047-25.992 3.3555 0 10.031 3.0977 14.836 6.9883 8.418 6.8164 8.5508 7.7227 3.668 25.133-8.9414 31.887-9.1875 34.816-2.918 34.816 3.1914 0 14.586-8.4258 25.32-18.719 19.602-18.793 31.941-24.883 42.34-20.895 4.1641 1.5977 5.5938 8.1992 5.5938 25.844 0 13.031 1.1523 24.848 2.5586 26.258 3.6367 3.6367 9.2891 1.1289 13.887-6.1562zm304.32-4.8281c8.168-5.0469 1.4219-8.9531-15.469-8.9531-16.508 0-18.617 0.89844-18.617 7.9219 0 7.207 1.3984 7.6992 15.469 5.4492 8.5078-1.3594 16.883-3.3477 18.617-4.418zm11.473-52.699c7.3555-5.6328 22.852-21.453 34.43-35.164 31.25-36.992 43.887-42.09 104.31-42.09h48.402l10.199-20.477c22.789-45.762 26.711-70.988 26.629-171.27-0.085938-100.39-0.53125-103.84-34.875-269.32-15.77-75.98-27.086-113.33-35.289-116.48-2.5781-0.98828-21.723 3.2617-42.543 9.4453-54.629 16.23-111.38 26.422-161.37 28.984-39.379 2.0195-43.895 1.5977-46.152-4.2852-3.5234-9.1836 2.7305-11.875 33.34-14.352 14.672-1.1875 53.691-8.9336 86.715-17.219 33.023-8.2812 71.316-16.656 85.098-18.609s25.953-4.4453 27.055-5.5469c3.1836-3.1836-12.312-37.523-26.734-59.25-44.641-67.254-159.58-134.36-245.86-143.54-32.316-3.4375-67.918-0.65234-85.762 6.7109-6.1445 2.5352-32.949 6.2109-59.57 8.168-26.621 1.957-57.984 5.9648-69.695 8.9062-27.281 6.8516-166.55 57.586-194.89 70.996-34.828 16.477-108.95 97.086-141.83 154.25-11.109 19.312-22.527 37.688-25.367 40.828-18.34 20.266-39.215 103.45-39.156 156.04 0.042969 36.938 13.324 156.1 20.59 184.74 3.1172 12.285 19.738 51.656 36.934 87.492 17.195 35.836 32.336 68.926 33.645 73.535 2.9375 10.344 5.9844 10.387 31.664 0.43359 25.934-10.043 80.895-13.266 123.44-7.2461 40.547 5.7383 104.13 22.602 156.62 41.543 52.938 19.102 73.203 18.695 123.91-2.457 31.398-13.098 35.969-13.984 72.602-14.082 62.777-0.16797 87.598 11.836 97.047 46.938 8.5352 31.707 32.09 41.027 56.48 22.355zm-361.89-134.72c-6.2461-11.672-4.7539-62.152 2.2422-75.824 12.098-23.637 29.492-44.469 44.457-53.238 30.352-17.789 27.418-9.1758-9.4297 27.668-16.641 16.641-30.77 34.215-32.25 40.109-2.293 9.1406-0.83203 19.285 8.6602 60.105 2.4844 10.684-8.1055 11.594-13.684 1.1758zm74.332-3.375c0-6.9102 22.758-48.09 30.699-55.551 33.375-31.355 115.73-35.074 202-9.125 20.551 6.1797 23.137 8.1953 32.301 25.164 5.4805 10.145 10.508 23.469 11.168 29.613 1.8516 17.148-8.5 14.07-18.348-5.4609-4.6133-9.1484-10.477-18.621-13.031-21.051-7.1211-6.7734-87.355-28.223-113.48-30.332-38.629-3.1211-53.812 3.4023-90.695 38.961-29.418 28.355-40.617 36.02-40.617 27.785zm134.04-15.684c-11.398-3.8281-25.168-5.9688-31.062-4.832-8.8281 1.707-10.367 0.89844-9.2773-4.8398 1.8281-9.6445 21.773-10.848 50.562-3.0547 22.652 6.1328 29.641 13.406 17.395 18.109-3.2383 1.2422-6.1719 2.0898-6.5156 1.875s-9.8398-3.4766-21.105-7.2578zm194.39-32.383c-3.9414-5.6328-11.719-20.477-17.281-32.988-6.0703-13.656-17.445-29.969-28.453-40.812-10.086-9.9336-18.34-20.223-18.34-22.859 0-18.16 44.625 25.48 61.438 60.082 14.523 29.891 19.469 46.816 13.684 46.816-2.1289 0-7.0977-4.6094-11.043-10.238zm-559.26-50.465c0-6.957 21.441-39.82 25.98-39.82 5.9023 0 4.4883 15.934-2.3242 26.164-10.863 16.312-23.656 23.699-23.656 13.656zm325.78-24.484c-23.914-8.6484-47.777-20.883-52.98-27.164-2.6992-3.2617-3.0273-10.59-0.96094-21.68 1.7148-9.2148 1.9883-17.91 0.60547-19.324-1.3828-1.4141-10.836-3.0898-21.008-3.7227-15.367-0.96094-19.398-2.7695-23.844-10.719-6.3711-11.398-3.3047-27.754 6.1484-32.812 3.5977-1.9258 12.957-4.7031 20.801-6.1758 12.523-2.3477 14.102-1.8516 12.957 4.0898-0.77344 4.0117-6.2969 8.0586-13.57 9.9414-14.512 3.7578-19.531 13.164-10.535 19.738 4.6641 3.4102 10.156 3.6445 20.996 0.88672 8.0742-2.0508 17.23-2.7461 20.352-1.5508 6.6367 2.5469 7.6172 22.863 1.8398 38.059-3.0195 7.9375-2.5547 11.48 2.1992 16.734 16.223 17.93 59.5 28.039 95.316 22.273 29.148-4.6953 69.184-23.824 74.562-35.625 5.5352-12.148 1.1797-30.562-11.875-50.195-6.1953-9.3164-11.133-21.715-11.125-27.926 0.007813-6.1445-2.8594-22.387-6.3711-36.098-6.3789-24.887-6.3711-24.984 3.418-58.688 11.848-40.789 10.312-49.176-13.695-74.844-17.176-18.359-19.73-23.652-13.332-27.605 4.8047-2.9688 32.695 22.613 39.949 36.641 12.152 23.504 12.551 31.641 2.8867 59.301-5.0469 14.445-9.1172 31.418-9.0469 37.715 0.31641 27.852 11.254 71.738 23.887 95.859 24.043 45.895 17.387 58.969-43.086 84.664-40.977 17.41-63.625 19.383-94.488 8.2227zm-444.17-34.695c-9.207-9.2109-1.8828-51.379 8.9258-51.379 6.2031 0 6.8672 13.805 1.3594 28.289-2.668 7.0156-2.668 11.352 0 14.02 5.4062 5.4062 4.8164 13.539-0.98047 13.539-2.6602 0-6.8516-2.0117-9.3086-4.4648zm192.86-7.9805c0-11.824 32.57-57.41 54.648-76.496 24.664-21.316 58.797-37.594 84.348-40.234 17.73-1.8281 21.098-1.2305 21.098 3.7539 0 6.2383-20.234 13.668-37.332 13.707-11.027 0.035156-25.961 9.5-25.961 16.473 0 6.543-26.82 39.363-32.18 39.383-2.3398 0-5.3281-2.7852-6.6406-6.2031-1.9961-5.1992-4.7578-3.8984-16.863 7.9219-7.9648 7.7773-18.355 22.301-23.094 32.281-9.1445 19.262-18.023 23.898-18.023 9.418zm532.98 3.8203c-2.3828-2.8711-6.6953-13.074-9.5859-22.676-7.6992-25.59-14.145-33.445-40.164-48.957-43.418-25.887-57.184-38.902-41.105-38.867 3.582 0 12.184 3.4688 19.109 7.6914 10.648 6.4922 14.203 7.0117 22.996 3.3711 5.7188-2.3672 13.91-3.1953 18.195-1.832 10.715 3.3984 24.871 32.902 33.488 69.777 7 29.965 5.8672 42.105-2.9375 31.492zm-76.562-43.781c-11.477-13.641-12.125-18.332-2.5234-18.332 6.918 0 26.395 19.441 26.395 26.348 0 7.6875-14.852 2.6992-23.871-8.0156zm-679.81-19.656c0-9.0781 23.684-43.352 29.957-43.352 7.207 0 3.1953 13.66-9.5781 32.629-14.27 21.191-20.379 24.402-20.379 10.723zm546.06-8.6016c-4.2852-4.2852-2.7109-8.6875 3.1016-8.6875 3.0703 0 5.5859 2.5117 5.5859 5.5859 0 5.8164-4.4023 7.3867-8.6875 3.1016zm-31.227-53.352c-7.1289-2.9453-15.715-20.438-11.727-23.895 0.75781-0.65625 7.6602-2.332 15.34-3.7188 13.137-2.375 13.961-1.9648 13.961 6.9531 0 8.3867 1.5312 9.4766 13.305 9.4766 10.66 0 13.059 1.2969 12.066 6.5156-0.92969 4.9062-5.3711 6.7109-17.957 7.2969-9.1953 0.42969-20.441-0.75391-24.988-2.6328zm-205.81-24.203c-7.0195-8.457 0.26953-15.145 10.52-9.6562 9.2305 4.9414 22.293 5.5156 17.211 0.75781-1.9453-1.8203-13.059-6.0234-24.699-9.3398-11.637-3.3164-25.879-9.9492-31.648-14.738-5.7656-4.7891-16.918-9.7188-24.781-10.957-15.844-2.4961-24.801-8.3047-24.801-16.098 0-7.918 11.746-6.0938 26.855 4.1758 17.379 11.809 37.703 15.75 96.941 18.793 35.441 1.8203 47.469 3.6758 47.469 7.3203 0 2.875-6.5039 5.8945-15.824 7.3438-27.188 4.2266-29.137 5.3516-28.02 16.16 1.0039 9.7148 0.47656 9.9844-21.652 11.051-17.148 0.82422-23.875-0.34375-27.578-4.8125zm413.86-19.664c-8.1328-2.7109-4.5039-11.988 4.6836-11.988 10.98 0 20.781 3.5 20.781 7.4219 0 3.3242-18.984 6.7266-25.465 4.5664zm-43.867-31.98c2.3047-9.1875 1.6445-9.793-10.645-9.793-13.242 0-17.105-5.6797-9.2227-13.562 2.6914-2.6914-2.4375-9.2812-16.754-21.512-31.965-27.309-26.789-37.777 24.043-48.652 84.738-18.129 96.805-16.062 110.14 18.863 9.1211 23.887 5.2695 33.848-14.262 36.855-35.57 5.4727-40.457 6.7344-37.516 9.6758 1.6914 1.6914 15.637 3.5742 30.996 4.1875 21.84 0.87109 27.918 2.3281 27.918 6.6953 0 4.1094-5.1445 5.8828-19.469 6.707-13.793 0.79297-20.871 3.1211-24.273 7.9805-3.6289 5.1797-11.969 7.5273-34.109 9.6016l-29.309 2.7461zm58.418-49.207c11.121-3.2461 22.379-7.9766 25.012-10.508 12.066-11.598-10.277-28.266-37.883-28.266-15.434 0-16.656 0.69531-16.008 9.1055 0.38672 5.0078-0.97266 8.7773-3.0234 8.3789-2.0469-0.40234-3.2188-4.6523-2.5977-9.4453 1.0352-8.0078 0.12891-8.5156-11.168-6.2578-25.723 5.1406-51.387 13.449-51.387 16.633 0 8.8398 5.9023 16.383 16.379 20.945 15.766 6.8633 56.168 6.5664 80.676-0.58984zm-602.77 48.07c0.8125-4.2812 5.1836-7.2422 11.824-8.0039 8.5078-0.97656 10.285 0.097656 9.2461 5.5859-0.8125 4.2812-5.1836 7.2422-11.824 8.0039-8.5078 0.97656-10.285-0.097656-9.2461-5.5859zm183.66-2.6758c-58.402-15.645-61.934-18.656-53.137-45.301 3.4141-10.332 10.711-18.871 26.141-30.586 11.773-8.9414 21.406-17.648 21.406-19.352 0-5.543-23.379-11.516-65.883-16.828-42.125-5.2656-61.746-11.871-65.676-22.109-3.5664-9.2969 3.9023-10.402 30.195-4.4727 13.77 3.1055 56.035 9.2305 93.918 13.613 37.883 4.3828 80.297 10.344 94.254 13.246 13.957 2.9023 31.762 5.2812 39.566 5.2812 17.34 0 26.008 8.1016 18.434 17.23-4.1562 5.0039-9.7344 5.6602-32.102 3.7695-14.891-1.2578-27.074-1.5508-27.074-0.65234s7.3945 6.7227 16.43 12.938c18.305 12.594 30.855 37.73 26.836 53.742-6.7109 26.734-63.02 35.633-123.32 19.48zm91.594-10.312c15.777-5.4023 18.18-8.957 14.566-21.551-5.0625-17.648-12.664-26.254-31.496-35.66-32.527-16.242-81.102-11.492-102.63 10.039-16.383 16.383-14.355 29.324 5.6328 36 43.512 14.531 90.625 19.148 113.93 11.172zm-59.383-17.578c-9.0117-5.7109-3.4102-17.184 8.3867-17.184 13.066 0 22.051 11.277 13.387 16.805-6.918 4.4102-15.184 4.5547-21.773 0.37891zm-261.18 22.43c0-7.5859 22.246-15.578 58.629-21.062 41.363-6.2344 56.789-6.8828 56.789-2.3906 0 5.8633-19.668 12.098-55.461 17.574-19.668 3.0078-41.203 6.4727-47.859 7.7031-7.6016 1.4023-12.102 0.72656-12.102-1.8203zm-1.6484-97.996c1.418-4.4648 5.7109-13.262 9.543-19.547 3.8555-6.3242 6.9727-18.355 6.9805-26.945 0.019532-18.898 2.9297-27.297 9.4688-27.297 12.961 0 8.3633 38.176-7.9609 66.086-9.8867 16.902-22.691 22.371-18.035 7.7031zm446-27.242-10.602-13.023-67.016 7.7266c-67.797 7.8164-103.3 7.5781-134.04-0.89844-8.1914-2.2578-23.973-5.1406-35.07-6.4062-12.051-1.3711-20.855-4.3438-21.859-7.375-1.3828-4.1719 3.2188-4.5039 25.762-1.8633 15.094 1.7695 65.141 3.0195 111.21 2.7812 67.605-0.35547 92.031-1.9453 126.59-8.25 65.195-11.898 109.65-21.277 152.24-32.121 37.172-9.4648 48.809-10.043 48.809-2.4258 0 5.4961-29.355 13.914-103.47 29.68-37.457 7.9648-69.215 15.594-70.57 16.953-1.3594 1.3594-0.63281 7.3359 1.6133 13.281 7.4648 19.773-8.0508 21.051-23.602 1.9414zm-220.03-34.121c-2.5586-1.0312-4.6523-5.0898-4.6523-9.0156 0-8.6328 8.7773-9.0781 55.68-2.832 28.531 3.8008 34.477 3.5312 50.684-2.2773 14.133-5.0664 35.938-7.1484 94.688-9.0508 61.82-2 78.59-3.6914 88.238-8.8906 16.199-8.7305 53.305-18.078 61.477-15.48 10.309 3.2695 7.8984 8.1953-5.4414 11.117-6.6562 1.457-24.938 8.293-40.629 15.188-27.844 12.234-29.762 12.539-80.047 12.613-28.336 0.046876-71.625 2.5039-96.199 5.4688-43.133 5.2031-114.23 7.0195-123.8 3.1562zm119.5-36.789c-1.2109-3.1602-1.5781-6.1914-0.8125-6.7344s26.598-5.4961 57.41-11.008c57.707-10.32 92.691-12.672 96.516-6.4844 3.8984 6.3086-10.359 10.305-44.562 12.488-18.43 1.1758-44.199 5.5938-57.262 9.8125-28.617 9.2422-48.195 9.9766-51.285 1.9258z"/>
</svg>
